<?xml version="1.0" encoding="UTF-8"?>
<svg width="27px" height="27px" viewBox="0 0 27 27" version="1.1" xmlns="http://www.w3.org/2000/svg" xmlns:xlink="http://www.w3.org/1999/xlink">
    <!-- Generator: sketchtool 60 (101010) - https://sketch.com -->
    <title>DDA038DB-7CAF-4778-8ADC-3622E9D41289</title>
    <desc>Created with sketchtool.</desc>
    <g id="Asset-Artboard-Page" stroke="none" stroke-width="1" fill="none" fill-rule="evenodd">
        <g id="Virtru-icons/Avatar">
            <rect fill="#515864" x="0" y="0" width="27" height="27"></rect>
            <path d="M13.5,0 C20.9558441,0 27,6.04415588 27,13.5 C27,20.9558441 20.9558441,27 13.5,27 C6.04415588,27 0,20.9558441 0,13.5 C0,6.04415588 6.04415588,0 13.5,0 Z M13.5,1.08482143 C6.64328621,1.08482143 1.08482143,6.64328621 1.08482143,13.5 C1.08482143,20.3567138 6.64328621,25.9151786 13.5,25.9151786 C20.3567138,25.9151786 25.9151786,20.3567138 25.9151786,13.5 C25.9151786,6.64328621 20.3567138,1.08482143 13.5,1.08482143 Z M13.5000005,15.0902713 C17.5585162,15.0902713 20.0379596,16.8648976 20.7031164,20.3267484 C20.7809126,20.7316434 20.5157466,21.1229419 20.1108516,21.200738 C19.7059566,21.2785341 19.3146581,21.0133682 19.236862,20.6084732 C18.7156747,17.8959209 16.8817922,16.5833456 13.5000005,16.5833456 C10.1182088,16.5833456 8.28432634,17.8959209 7.76313903,20.6084732 C7.68534289,21.0133682 7.29404441,21.2785341 6.88914943,21.200738 C6.48425445,21.1229419 6.21908845,20.7316434 6.2968846,20.3267484 C6.96204143,16.8648976 9.44148476,15.0902713 13.5000005,15.0902713 Z M13.6105984,5.78571432 C16.0729941,5.78571432 17.4538821,7.56410059 17.4538821,10.2667597 C17.4538821,12.6888004 15.5697925,14.747805 13.6105984,14.747805 C11.6514044,14.747805 9.76731471,12.6888004 9.76731471,10.2667597 C9.76731471,7.56410059 11.1482027,5.78571432 13.6105984,5.78571432 Z M13.6105982,7.27878854 C12.067228,7.27878854 11.2603887,8.31788219 11.2603887,10.2667597 C11.2603887,11.8923309 12.5070511,13.2547308 13.6105982,13.2547308 C14.7141453,13.2547308 15.9608076,11.8923309 15.9608076,10.2667597 C15.9608076,8.31788219 15.1539683,7.27878854 13.6105982,7.27878854 Z" id="Icon" fill="#FFFFFF" fill-rule="nonzero"></path>
        </g>
    </g>
</svg>