<?xml version="1.0" encoding="UTF-8"?>
<svg width="27px" height="27px" viewBox="0 0 27 27" version="1.1" xmlns="http://www.w3.org/2000/svg" xmlns:xlink="http://www.w3.org/1999/xlink">
    <!-- Generator: Sketch 60 (88103) - https://sketch.com -->
    <title>Fill 1</title>
    <desc>Created with Sketch.</desc>
    <g id="Page-1" stroke="none" stroke-width="1" fill="none" fill-rule="evenodd">
        <g id="home" transform="translate(-1318.000000, -24.000000)" fill="#FFFFFF">
            <g id="Group" transform="translate(1300.000000, 24.000000)">
                <path d="M42,2 C42.551,2 43,2.46940909 43,3.04545455 L43,23.9545455 C43,24.5305909 42.551,25 42,25 L31,25 L31,2 L42,2 Z M25,3.5 C25,2.67181818 25.6709091,2 26.5,2 C27.3290909,2 28,2.67181818 28,3.5 C28,4.32818182 27.3290909,5 26.5,5 C25.6709091,5 25,4.32818182 25,3.5 L25,3.5 Z M20,3.5 C20,2.67181818 20.6709091,2 21.5,2 C22.3290909,2 23,2.67181818 23,3.5 C23,4.32818182 22.3290909,5 21.5,5 C20.6709091,5 20,4.32818182 20,3.5 L20,3.5 Z M20,10 L28,10 L28,7 L20,7 L20,10 Z M18,3.11538462 L18,23.8846154 C18,25.6043077 19.3956923,27 21.1153846,27 L41.8846154,27 C43.6043077,27 45,25.6043077 45,23.8846154 L45,3.11538462 C45,1.39569231 43.6043077,0 41.8846154,0 L21.1153846,0 C19.3956923,0 18,1.39569231 18,3.11538462 L18,3.11538462 Z" id="Fill-1"></path>
            </g>
        </g>
    </g>
</svg>